<svg xmlns="http://www.w3.org/2000/svg" xmlns:xlink="http://www.w3.org/1999/xlink" width="634" height="675" viewBox="0 0 634 675">
  <defs>
    <linearGradient id="linear-gradient" x1="1" y1="0.5" x2="0" y2="0.5" gradientUnits="objectBoundingBox">
      <stop offset="0" stop-color="#99c0fb"/>
      <stop offset="1" stop-color="#cafcd9"/>
    </linearGradient>
    <filter id="Rectangle_1" x="70" y="0" width="408" height="599" filterUnits="userSpaceOnUse">
      <feOffset dy="3" input="SourceAlpha"/>
      <feGaussianBlur stdDeviation="3" result="blur"/>
      <feFlood flood-opacity="0.161"/>
      <feComposite operator="in" in2="blur"/>
      <feComposite in="SourceGraphic"/>
    </filter>
    <filter id="GIRL_IMAGE" x="282" y="184" width="352" height="491" filterUnits="userSpaceOnUse">
      <feOffset dy="3" input="SourceAlpha"/>
      <feGaussianBlur stdDeviation="3" result="blur-2"/>
      <feFlood flood-opacity="0.161"/>
      <feComposite operator="in" in2="blur-2"/>
      <feComposite in="SourceGraphic"/>
    </filter>
    <pattern id="pattern" preserveAspectRatio="none" width="100%" height="100%" viewBox="0 0 1097 512">
      <image width="1097" height="512" xlink:href="hero-img-image2.png"/>
    </pattern>
    <pattern id="pattern-2" preserveAspectRatio="none" width="100%" height="100%" viewBox="0 0 1174 478">
      <image width="1174" height="478" xlink:href="hero-img-image3.png"/>
    </pattern>
  </defs>
  <g id="hero-img" transform="translate(-603 -99)">
    <g transform="matrix(1, 0, 0, 1, 603, 99)" filter="url(#Rectangle_1)">
      <rect id="Rectangle_1-2" data-name="Rectangle 1" width="390" height="581" rx="50" transform="translate(79 6)" fill="url(#linear-gradient)"/>
    </g>
    <g transform="matrix(1, 0, 0, 1, 603, 99)" filter="url(#GIRL_IMAGE)">
      <image id="GIRL_IMAGE-2" data-name="GIRL IMAGE" width="334" height="473" transform="translate(291 190)" xlink:href="hero-img-image.png"/>
    </g>
    <g id="chat">
      <g id="Group_3" data-name="Group 3">
        <rect id="Rectangle_2" data-name="Rectangle 2" width="267" height="101" rx="30" transform="translate(616 319)" fill="#fff"/>
        <text id="Hello_Emma_Thanks_for_reaching_out_Please_choose_the_option_below:" data-name="Hello, Emma! Thanks for reaching out! Please choose the option below:" transform="translate(636 327)" font-size="20" font-family="SegoeUI, Segoe UI"><tspan x="0" y="22">Hello, </tspan><tspan y="22" font-family="SegoeUI-Bold, Segoe UI" font-weight="700">Emma!</tspan><tspan y="22" xml:space="preserve"> Thanks for </tspan><tspan x="0" y="49">reaching out! Please </tspan><tspan x="0" y="76">choose the option below:</tspan></text>
      </g>
      <g id="GREEN_BUBB:E" data-name="GREEN BUBB:E" transform="translate(0 9.944)">
        <rect id="Rectangle_5" data-name="Rectangle 5" width="339" height="100" rx="30" transform="translate(791 170.056)" fill="#00c02c"/>
        <path id="Path_1" data-name="Path 1" d="M15.932,0,0,35.265s.759,5.7,27.313,9.162c.19.519-11.57-6.915-11.38-25.239Z" transform="matrix(0.995, -0.105, 0.105, 0.995, 1112.93, 228.842)" fill="#00c02c"/>
        <text id="Hi_I_need_legal_Service_Can_you_help_" data-name="Hi, I need legal Service Can you help?" transform="translate(804 175.056)" font-size="31" font-family="SegoeUI-Bold, Segoe UI" font-weight="700"><tspan x="0" y="33">Hi, I need legal </tspan><tspan x="0" y="74">Service Can you help?</tspan></text>
      </g>
      <g id="Group_1" data-name="Group 1" transform="translate(22 -6)">
        <rect id="Rectangle_3" data-name="Rectangle 3" width="98" height="37" rx="18.5" transform="translate(594 436)" fill="#fff"/>
        <text id="TSA" transform="translate(643 463)" font-size="20" font-family="SegoeUI, Segoe UI"><tspan x="-16.807" y="0">TSA</tspan></text>
      </g>
      <g id="Group_2" data-name="Group 2" transform="translate(2 -8)">
        <rect id="Rectangle_4" data-name="Rectangle 4" width="223" height="60" rx="30" transform="translate(614 496)" fill="#fff"/>
        <text id="Other_Legal_Services" data-name="Other Legal Services" transform="translate(726 535)" font-size="22" font-family="SegoeUI, Segoe UI"><tspan x="-98.372" y="0">Other Legal Services</tspan></text>
      </g>
    </g>
    <path id="Path_2" data-name="Path 2" d="M15.932,44.453,0,9.187S.759,3.483,27.313.025c.19-.519-11.57,6.915-11.38,25.239Z" transform="matrix(-0.995, -0.105, 0.105, -0.995, 630.165, 550.532)" fill="#fff"/>
    <g id="contact" transform="translate(136 -814)">
      <rect id="logo" width="42" height="20" transform="translate(587 935)" fill="url(#pattern)"/>
      <text id="Community_Legal_Clinic" data-name="Community Legal Clinic" transform="translate(742 953)" font-size="20" font-family="SegoeUI-Bold, Segoe UI" font-weight="700"><tspan x="-110.957" y="0">Community Legal Clinic</tspan></text>
      <rect id="whatsapp-unternehmensaccount-verifizieren" width="79" height="32" transform="translate(830 929)" fill="url(#pattern-2)"/>
    </g>
  </g>
</svg>
