<svg xmlns="http://www.w3.org/2000/svg" width="49.479" height="48.31" viewBox="0 0 49.479 48.31">
  <g id="star" transform="translate(-857.5 -621.5)">
    <path id="star-alt-2-svgrepo-com" d="M26.014,5.259c.651-1.235.977-1.853,1.411-2.055a1.419,1.419,0,0,1,1.194,0c.435.2.76.819,1.411,2.055l3.993,7.577a3.269,3.269,0,0,0,.631.978,1.419,1.419,0,0,0,.644.31,3.27,3.27,0,0,0,1.158-.116l8.414-1.6c1.372-.261,2.058-.392,2.487-.178a1.419,1.419,0,0,1,.744.934c.114.466-.166,1.105-.726,2.385l-3.434,7.846a3.271,3.271,0,0,0-.371,1.1,1.418,1.418,0,0,0,.159.7,3.272,3.272,0,0,0,.813.833l6.5,5.58c1.06.91,1.589,1.365,1.689,1.833a1.419,1.419,0,0,1-.266,1.164c-.293.379-.968.559-2.317.919l-8.275,2.207a3.269,3.269,0,0,0-1.094.4,1.418,1.418,0,0,0-.446.559,3.268,3.268,0,0,0-.144,1.155L39.878,48.4c-.051,1.4-.076,2.093-.38,2.464a1.419,1.419,0,0,1-1.076.518c-.479.007-1.041-.408-2.163-1.239L29.373,45.05a3.274,3.274,0,0,0-.993-.607,1.42,1.42,0,0,0-.715,0,3.274,3.274,0,0,0-.993.607l-6.885,5.094c-1.123.83-1.684,1.246-2.163,1.239a1.418,1.418,0,0,1-1.076-.518c-.3-.37-.33-1.068-.38-2.464l-.311-8.559a3.269,3.269,0,0,0-.144-1.155,1.417,1.417,0,0,0-.446-.559,3.27,3.27,0,0,0-1.094-.4L5.9,35.522c-1.349-.36-2.024-.54-2.317-.919a1.419,1.419,0,0,1-.266-1.164c.1-.469.63-.924,1.689-1.833l6.5-5.58a3.272,3.272,0,0,0,.813-.833,1.42,1.42,0,0,0,.159-.7,3.268,3.268,0,0,0-.371-1.1L8.669,15.547c-.56-1.279-.84-1.919-.726-2.385a1.419,1.419,0,0,1,.745-.934c.429-.214,1.115-.084,2.487.178l8.414,1.6a3.269,3.269,0,0,0,1.158.116,1.419,1.419,0,0,0,.644-.31,3.269,3.269,0,0,0,.631-.978Z" transform="translate(854.217 618.428)" fill="red"/>
    <text id="NEW" transform="translate(868 651)" fill="#fff" font-size="12" font-family="SegoeUI-Bold, Segoe UI" font-weight="700"><tspan x="0" y="0">NEW</tspan></text>
  </g>
</svg>
